<?xml version="1.0" encoding="UTF-8" standalone="yes"?>
<!-- Created with sK1/UniConvertor (http://sk1project.org/) -->
<svg xmlns="http://www.w3.org/2000/svg" xmlns:xlink="http://www.w3.org/1999/xlink"
  width="300.8pt" height="289.6pt" viewBox="0 0 300.8 289.6"
  fill-rule="evenodd">
<g>
<path style="stroke:none; fill:#ffffff" d="M 0 0L 0 289.6L 300.8 289.6L 300.8 0L 0 0z"/>
<path style="stroke:none; fill:#f7d9e1" d="M 134.4 3.20001L 134.4 4L 136.8 4C 135.802 3.45215 135.562 3.40097 134.4 3.20001z"/>
<path style="stroke:none; fill:#e981ac" d="M 136.8 3.20001L 136.8 4L 140 4C 138.795 3.45358 138.148 3.33929 136.8 3.20001z"/>
<path style="stroke:none; fill:#e15794" d="M 140 3.20001L 140 4L 143.2 4C 141.995 3.45358 141.348 3.33929 140 3.20001z"/>
<path style="stroke:none; fill:#db2777" d="M 143.2 3.53952C 109.568 7.95532 79.2972 16.1443 53.6 40.0716C -10.469 99.728 -6.68546 205.804 64 258.9C 77.2027 268.818 92.1832 276.31 108 281.023C 128.256 287.059 149.545 288.183 170.4 285.374C 240.033 275.994 294.246 211.066 291.169 140.8C 288.422 78.0967 245.389 22.9773 184 7.70126C 171.414 4.56931 156.148 1.83948 143.2 3.53952z"/>
<path style="stroke:none; fill:#e15794" d="M 153.6 3.20001L 153.6 4L 158.4 4C 156.758 3.30063 155.402 3.23776 153.6 3.20001z"/>
<path style="stroke:none; fill:#eb8fb6" d="M 158.4 3.20001L 158.4 4L 160.8 4C 159.802 3.45215 159.562 3.40097 158.4 3.20001z"/>
<path style="stroke:none; fill:#f4c1d3" d="M 161.334 3.46667C 160.978 3.82233 161.822 3.77768 161.866 3.73334C 162.222 3.3779 161.378 3.42218 161.334 3.46667z"/>
<path style="stroke:none; fill:#ecaac4" d="M 129.334 4.26669C 128.978 4.62231 129.822 4.5777 129.866 4.53333C 130.222 4.17789 129.378 4.22217 129.334 4.26669z"/>
<path style="stroke:none; fill:#e674a0" d="M 130.934 4.26669C 130.578 4.62228 131.422 4.57773 131.466 4.53333C 131.822 4.17789 130.978 4.22217 130.934 4.26669z"/>
<path style="stroke:none; fill:#e15794" d="M 165.334 4.26669C 164.978 4.62228 165.822 4.57773 165.866 4.53333C 166.222 4.17789 165.378 4.22217 165.334 4.26669z"/>
<path style="stroke:none; fill:#eb8fb6" d="M 166.934 4.26669C 166.578 4.62231 167.422 4.5777 167.466 4.53333C 167.822 4.17792 166.978 4.22217 166.934 4.26669z"/>
<path style="stroke:none; fill:#f6ccdd" d="M 168.534 4.26669C 168.178 4.62231 169.022 4.5777 169.066 4.53333C 169.422 4.17789 168.578 4.22217 168.534 4.26669z"/>
<path style="stroke:none; fill:#ecaac4" d="M 124.534 5.06668C 124.178 5.42233 125.022 5.37766 125.066 5.33334C 125.422 4.97791 124.578 5.02219 124.534 5.06668z"/>
<path style="stroke:none; fill:#e15794" d="M 126.134 5.06668C 125.778 5.42233 126.622 5.37766 126.666 5.33334C 127.022 4.97787 126.178 5.02219 126.134 5.06668z"/>
<path style="stroke:none; fill:#e674a0" d="M 171.2 4.80002L 171.2 5.60001L 173.6 5.60001C 172.602 5.05212 172.362 5.00098 171.2 4.80002z"/>
<path style="stroke:none; fill:#eb8fb6" d="M 120.534 5.86667C 120.178 6.22226 121.022 6.1777 121.066 6.13333C 121.422 5.77789 120.578 5.82217 120.534 5.86667M 176 5.60001L 176 6.39999L 178.4 6.39999C 177.402 5.85214 177.162 5.80099 176 5.60001z"/>
<path style="stroke:none; fill:#e7699f" d="M 117.334 6.66669C 116.978 7.02228 117.822 6.97772 117.866 6.93332C 118.222 6.57788 117.378 6.62219 117.334 6.66669z"/>
<path style="stroke:none; fill:#ed99bd" d="M 180.534 6.66669C 180.178 7.02228 181.022 6.97772 181.066 6.93332C 181.422 6.57788 180.578 6.62216 180.534 6.66669z"/>
<path style="stroke:none; fill:#e2629a" d="M 114.134 7.46667C 113.778 7.8223 114.622 7.77768 114.666 7.73334C 115.022 7.3779 114.178 7.42218 114.134 7.46667z"/>
<path style="stroke:none; fill:#eb8fb6" d="M 183.734 7.46667C 183.378 7.82236 184.222 7.77768 184.266 7.73334C 184.622 7.37793 183.778 7.42218 183.734 7.46667z"/>
<path style="stroke:none; fill:#e7699f" d="M 110.934 8.26663C 110.578 8.62225 111.422 8.5777 111.466 8.53336C 111.822 8.17792 110.978 8.22217 110.934 8.26663z"/>
<path style="stroke:none; fill:#ecaac4" d="M 186.934 8.26663C 186.578 8.62225 187.422 8.5777 187.466 8.53336C 187.822 8.17792 186.978 8.22208 186.934 8.26663z"/>
<path style="stroke:none; fill:#eb8fb6" d="M 108 8.80002L 108.8 9.60001L 108 8.80002M 189.6 8.80002L 190.4 9.60001L 189.6 8.80002z"/>
<path style="stroke:none; fill:#f4c1d3" d="M 104.8 9.60001L 105.6 10.4L 104.8 9.60001z"/>
<path style="stroke:none; fill:#e674a0" d="M 105.6 9.60001L 106.4 10.4L 105.6 9.60001M 192 9.60001L 192.8 10.4L 192 9.60001z"/>
<path style="stroke:none; fill:#f4c1d3" d="M 102.4 10.4L 103.2 11.2L 102.4 10.4z"/>
<path style="stroke:none; fill:#e674a0" d="M 103.2 10.4L 104 11.2L 103.2 10.4M 194.4 10.4L 195.2 11.2L 194.4 10.4z"/>
<path style="stroke:none; fill:#e981ac" d="M 100.8 11.2L 101.6 12L 100.8 11.2M 196.8 11.2L 197.6 12L 196.8 11.2z"/>
<path style="stroke:none; fill:#ed99bd" d="M 98.4 12L 99.2 12.8L 98.4 12z"/>
<path style="stroke:none; fill:#eb9fba" d="M 199.2 12L 200 12.8L 199.2 12z"/>
<path style="stroke:none; fill:#f4c1d3" d="M 96 12.8L 96.8 13.6L 96 12.8z"/>
<path style="stroke:none; fill:#e674a0" d="M 200.8 12.8L 201.6 13.6L 200.8 12.8z"/>
<path style="stroke:none; fill:#eb8fb6" d="M 94.4 13.6L 95.2 14.4L 94.4 13.6z"/>
<path style="stroke:none; fill:#ed99bd" d="M 203.2 13.6L 204 14.4L 203.2 13.6z"/>
<path style="stroke:none; fill:#e674a0" d="M 92.8 14.4L 93.6 15.2L 92.8 14.4M 204.8 14.4L 205.6 15.2L 204.8 14.4z"/>
<path style="stroke:none; fill:#f0b5ce" d="M 90.4 15.2L 91.2 16L 90.4 15.2M 207.2 15.2L 208 16L 207.2 15.2z"/>
<path style="stroke:none; fill:#ecaac4" d="M 88.8 16L 89.6 16.8L 88.8 16M 208.8 16L 209.6 16.8L 208.8 16z"/>
<path style="stroke:none; fill:#ed99bd" d="M 87.2 16.8L 88 17.6L 87.2 16.8M 210.4 16.8L 211.2 17.6L 210.4 16.8M 85.6 17.6L 86.4 18.4L 85.6 17.6M 212 17.6L 212.8 18.4L 212 17.6M 84 18.4L 84.8 19.2L 84 18.4M 213.6 18.4L 214.4 19.2L 213.6 18.4z"/>
<path style="stroke:none; fill:#ecaac4" d="M 82.4 19.2L 83.2 20L 82.4 19.2z"/>
<path style="stroke:none; fill:#eb9fba" d="M 215.2 19.2L 216 20L 215.2 19.2z"/>
<path style="stroke:none; fill:#f0b5ce" d="M 80.8 20L 81.6 20.8L 80.8 20M 216.8 20L 217.6 20.8L 216.8 20z"/>
<path style="stroke:none; fill:#e7699f" d="M 78.4 21.6L 79.2 22.4L 78.4 21.6M 219.2 21.6L 220 22.4L 219.2 21.6z"/>
<path style="stroke:none; fill:#eb8fb6" d="M 76.8 22.4L 77.6 23.2L 76.8 22.4M 220.8 22.4L 221.6 23.2L 220.8 22.4z"/>
<path style="stroke:none; fill:#f4c1d3" d="M 75.2 23.2L 76 24L 75.2 23.2z"/>
<path style="stroke:none; fill:#f0b5ce" d="M 222.4 23.2L 223.2 24L 222.4 23.2z"/>
<path style="stroke:none; fill:#e7699f" d="M 74.4 24L 75.2 24.8L 74.4 24M 223.2 24L 224 24.8L 223.2 24z"/>
<path style="stroke:none; fill:#eb9fba" d="M 72.8 24.8L 73.6 25.6L 72.8 24.8M 224.8 24.8L 225.6 25.6L 224.8 24.8z"/>
<path style="stroke:none; fill:#eb8fb6" d="M 70.4 26.4L 71.2 27.2L 70.4 26.4M 227.2 26.4L 228 27.2L 227.2 26.4z"/>
<path style="stroke:none; fill:#eb9fba" d="M 68 28L 68.8 28.8L 68 28M 229.6 28L 230.4 28.8L 229.6 28z"/>
<path style="stroke:none; fill:#f4c1d3" d="M 65.6 29.6L 66.4 30.4L 65.6 29.6M 232 29.6L 232.8 30.4L 232 29.6z"/>
<path style="stroke:none; fill:#e981ac" d="M 64.8 30.4L 65.6 31.2L 64.8 30.4M 232.8 30.4L 233.6 31.2L 232.8 30.4z"/>
<path style="stroke:none; fill:#f0b5ce" d="M 62.4 32L 63.2 32.8L 62.4 32M 235.2 32L 236 32.8L 235.2 32z"/>
<path style="stroke:none; fill:#e981ac" d="M 61.6 32.8L 62.4 33.6L 61.6 32.8M 236 32.8L 236.8 33.6L 236 32.8z"/>
<path style="stroke:none; fill:#f0b5ce" d="M 58.4 35.2L 59.2 36L 58.4 35.2z"/>
<path style="stroke:none; fill:#ecaac4" d="M 239.2 35.2L 240 36L 239.2 35.2z"/>
<path style="stroke:none; fill:#eb8fb6" d="M 57.6 36L 58.4 36.8L 57.6 36M 240 36L 240.8 36.8L 240 36z"/>
<path style="stroke:none; fill:#e7699f" d="M 56.8 36.8L 57.6 37.6L 56.8 36.8M 240.8 36.8L 241.6 37.6L 240.8 36.8z"/>
<path style="stroke:none; fill:#f4c1d3" d="M 52.8 40L 53.6 40.8L 52.8 40M 244.8 40L 245.6 40.8L 244.8 40z"/>
<path style="stroke:none; fill:#f0b5ce" d="M 52 40.8L 52.8 41.6L 52 40.8M 245.6 40.8L 246.4 41.6L 245.6 40.8z"/>
<path style="stroke:none; fill:#ecaac4" d="M 51.2 41.6L 52 42.4L 51.2 41.6M 246.4 41.6L 247.2 42.4L 246.4 41.6z"/>
<path style="stroke:none; fill:#eb9fba" d="M 50.4 42.4L 51.2 43.2L 50.4 42.4z"/>
<path style="stroke:none; fill:#ed99bd" d="M 247.2 42.4L 248 43.2L 247.2 42.4M 49.6 43.2L 50.4 44L 49.6 43.2M 248 43.2L 248.8 44L 248 43.2z"/>
<path style="stroke:none; fill:#eb8fb6" d="M 48.8 44L 49.6 44.8L 48.8 44M 248.8 44L 249.6 44.8L 248.8 44M 48 44.8L 48.8 45.6L 48 44.8M 249.6 44.8L 250.4 45.6L 249.6 44.8z"/>
<path style="stroke:none; fill:#ed99bd" d="M 47.2 45.6L 48 46.4L 47.2 45.6M 250.4 45.6L 251.2 46.4L 250.4 45.6M 46.4 46.4L 47.2 47.2L 46.4 46.4M 251.2 46.4L 252 47.2L 251.2 46.4z"/>
<path style="stroke:none; fill:#ecaac4" d="M 45.6 47.2L 46.4 48L 45.6 47.2M 252 47.2L 252.8 48L 252 47.2z"/>
<path style="stroke:none; fill:#f0b5ce" d="M 44.8 48L 45.6 48.8L 44.8 48M 252.8 48L 253.6 48.8L 252.8 48z"/>
<path style="stroke:none; fill:#f4c1d3" d="M 44 48.8L 44.8 49.6L 44 48.8M 253.6 48.8L 254.4 49.6L 253.6 48.8z"/>
<path style="stroke:none; fill:#e7699f" d="M 40.8 52.8L 41.6 53.6L 40.8 52.8M 256.8 52.8L 257.6 53.6L 256.8 52.8z"/>
<path style="stroke:none; fill:#eb8fb6" d="M 40 53.6L 40.8 54.4L 40 53.6M 257.6 53.6L 258.4 54.4L 257.6 53.6z"/>
<path style="stroke:none; fill:#ecaac4" d="M 39.2 54.4L 40 55.2L 39.2 54.4M 258.4 54.4L 259.2 55.2L 258.4 54.4z"/>
<path style="stroke:none; fill:#e981ac" d="M 36.8 57.6L 37.6 58.4L 36.8 57.6M 260.8 57.6L 261.6 58.4L 260.8 57.6z"/>
<path style="stroke:none; fill:#f0b5ce" d="M 36 58.4L 36.8 59.2L 36 58.4M 261.6 58.4L 262.4 59.2L 261.6 58.4z"/>
<path style="stroke:none; fill:#e981ac" d="M 34.4 60.8L 35.2 61.6L 34.4 60.8M 263.2 60.8L 264 61.6L 263.2 60.8z"/>
<path style="stroke:none; fill:#f0b5ce" d="M 33.6 61.6L 34.4 62.4L 33.6 61.6M 264 61.6L 264.8 62.4L 264 61.6z"/>
<path style="stroke:none; fill:#ed99bd" d="M 32 64L 32.8 64.8L 32 64M 265.6 64L 266.4 64.8L 265.6 64z"/>
<path style="stroke:none; fill:#ecaac4" d="M 72.8 65.6L 72.8 66.4L 120.8 66.4C 116.43 64.5663 110.31 65.6 105.6 65.6L 72.8 65.6M 181.6 65.6L 181.6 66.4L 228 66.4C 223.63 64.5663 217.51 65.6 212.8 65.6L 181.6 65.6z"/>
<path style="stroke:none; fill:#ed99bd" d="M 30.4 66.4L 31.2 67.2L 30.4 66.4z"/>
<path style="stroke:none; fill:#ffffff" d="M 72.8 66.4C 72.8 118.719 63.6329 170.912 63.2 223.2L 96 223.2C 96 181.909 98.352 139.551 101.6 98.4L 102.4 98.4C 102.87 109.304 106.455 120.588 108.895 131.2C 115.812 161.282 126.551 190.604 132.8 220.8C 139.026 220.8 155.24 223.727 160.238 219.978C 162.565 218.233 162.992 213.802 163.776 211.2L 171.047 188C 180.355 158.226 189.143 128.422 197.6 98.4L 198.4 98.4C 198.4 140.09 201.6 181.566 201.6 223.2L 236 223.2C 236 170.886 228 118.697 228 66.4L 180.8 66.4C 177.059 82.7184 170.411 98.3776 165.629 114.4C 159.707 134.239 155.211 154.478 149.6 174.4C 146.256 166.526 145.754 157.119 143.701 148.8C 139.063 130.01 134.172 111.274 128.406 92.8C 126.555 86.8696 125.088 71.0853 120.21 67.2222C 117.502 65.0787 110.487 66.4 107.2 66.4L 72.8 66.4z"/>
<path style="stroke:none; fill:#ed99bd" d="M 267.2 66.4L 268 67.2L 267.2 66.4z"/>
<path style="stroke:none; fill:#e674a0" d="M 120.8 67.2L 121.6 68L 120.8 67.2M 228 67.2L 228 70.4L 228.8 70.4C 228.661 69.0519 228.546 68.4048 228 67.2z"/>
<path style="stroke:none; fill:#ecaac4" d="M 28.8 68.8L 29.6 69.6L 28.8 68.8M 268.8 68.8L 269.6 69.6L 268.8 68.8z"/>
<path style="stroke:none; fill:#e674a0" d="M 72 69.6L 72 72.8L 72.8 72.8C 72.6607 71.4519 72.5464 70.8048 72 69.6z"/>
<path style="stroke:none; fill:#e7699f" d="M 28 70.4L 28.8 71.2L 28 70.4z"/>
<path style="stroke:none; fill:#f6ccdd" d="M 121.866 70.9334C 121.822 70.9778 121.778 71.8223 122.134 71.4666C 122.178 71.4222 122.222 70.5778 121.866 70.9334z"/>
<path style="stroke:none; fill:#ecaac4" d="M 228 70.4L 228 74.4L 228.8 74.4C 228.73 72.8288 228.623 71.8152 228 70.4z"/>
<path style="stroke:none; fill:#e7699f" d="M 269.6 70.4L 270.4 71.2L 269.6 70.4z"/>
<path style="stroke:none; fill:#f4c1d3" d="M 27.2 71.2L 28 72L 27.2 71.2M 270.4 71.2L 271.2 72L 270.4 71.2z"/>
<path style="stroke:none; fill:#eb8fb6" d="M 26.4 72.8L 27.2 73.6L 26.4 72.8z"/>
<path style="stroke:none; fill:#ecaac4" d="M 72 72.8L 72 76L 72.8 76C 72.6607 74.6519 72.5464 74.0048 72 72.8z"/>
<path style="stroke:none; fill:#e981ac" d="M 122.4 72.8L 123.2 73.6L 122.4 72.8z"/>
<path style="stroke:none; fill:#eb8fb6" d="M 271.2 72.8L 272 73.6L 271.2 72.8z"/>
<path style="stroke:none; fill:#eb9fba" d="M 178.4 73.6L 179.2 74.4L 178.4 73.6z"/>
<path style="stroke:none; fill:#e7699f" d="M 25.6 74.4L 26.4 75.2L 25.6 74.4z"/>
<path style="stroke:none; fill:#f7d9e1" d="M 228 74.4L 228 77.6L 228.8 77.6C 228.661 76.2518 228.546 75.6048 228 74.4z"/>
<path style="stroke:none; fill:#e7699f" d="M 272 74.4L 272.8 75.2L 272 74.4z"/>
<path style="stroke:none; fill:#eb9fba" d="M 123.466 75.7334C 123.422 75.7777 123.378 76.6223 123.734 76.2666C 123.778 76.2222 123.822 75.3779 123.466 75.7334z"/>
<path style="stroke:none; fill:#f7d9e1" d="M 72 76L 72 79.2L 72.8 79.2C 72.6607 77.8519 72.5464 77.2048 72 76z"/>
<path style="stroke:none; fill:#eb9fba" d="M 177.6 76L 178.4 76.8L 177.6 76z"/>
<path style="stroke:none; fill:#f0b5ce" d="M 24 76.8L 24.8 77.6L 24 76.8M 273.6 76.8L 274.4 77.6L 273.6 76.8z"/>
<path style="stroke:none; fill:#ecaac4" d="M 23.2 78.4L 24 79.2L 23.2 78.4z"/>
<path style="stroke:none; fill:#f4c1d3" d="M 124.266 78.9334C 124.222 78.9778 124.178 79.8223 124.534 79.4666C 124.578 79.4222 124.622 78.5778 124.266 78.9334z"/>
<path style="stroke:none; fill:#eb8fb6" d="M 176.8 78.4L 177.6 79.2L 176.8 78.4z"/>
<path style="stroke:none; fill:#ecaac4" d="M 274.4 78.4L 275.2 79.2L 274.4 78.4z"/>
<path style="stroke:none; fill:#ed99bd" d="M 22.4 80L 23.2 80.8L 22.4 80M 275.2 80L 276 80.8L 275.2 80z"/>
<path style="stroke:none; fill:#e674a0" d="M 124.8 80.8L 125.6 81.6L 124.8 80.8z"/>
<path style="stroke:none; fill:#eb8fb6" d="M 176 80.8L 176.8 81.6L 176 80.8z"/>
<path style="stroke:none; fill:#ed99bd" d="M 21.6 81.6L 22.4 82.4L 21.6 81.6z"/>
<path style="stroke:none; fill:#e674a0" d="M 228.8 81.6L 228.8 84.8L 229.6 84.8C 229.461 83.452 229.346 82.8048 228.8 81.6z"/>
<path style="stroke:none; fill:#ed99bd" d="M 276 81.6L 276.8 82.4L 276 81.6z"/>
<path style="stroke:none; fill:#e674a0" d="M 71.2 82.4L 71.2 85.6L 72 85.6C 71.8607 84.252 71.7464 83.6048 71.2 82.4z"/>
<path style="stroke:none; fill:#ed99bd" d="M 20.8 83.2L 21.6 84L 20.8 83.2z"/>
<path style="stroke:none; fill:#e981ac" d="M 175.2 83.2L 176 84L 175.2 83.2z"/>
<path style="stroke:none; fill:#ed99bd" d="M 276.8 83.2L 277.6 84L 276.8 83.2z"/>
<path style="stroke:none; fill:#f6ccdd" d="M 125.866 84.5336C 125.822 84.5776 125.778 85.4224 126.134 85.0664C 126.178 85.0224 126.222 84.1776 125.866 84.5336z"/>
<path style="stroke:none; fill:#ecaac4" d="M 20 84.8L 20.8 85.6L 20 84.8M 228.8 84.8L 228.8 88.8L 229.6 88.8C 229.53 87.2288 229.423 86.2152 228.8 84.8M 277.6 84.8L 278.4 85.6L 277.6 84.8M 71.2 85.6L 71.2 88.8L 72 88.8C 71.8607 87.452 71.7464 86.8048 71.2 85.6z"/>
<path style="stroke:none; fill:#e981ac" d="M 174.4 85.6L 175.2 86.4L 174.4 85.6z"/>
<path style="stroke:none; fill:#f0b5ce" d="M 19.2 86.4L 20 87.2L 19.2 86.4z"/>
<path style="stroke:none; fill:#e981ac" d="M 126.4 86.4L 127.2 87.2L 126.4 86.4z"/>
<path style="stroke:none; fill:#f0b5ce" d="M 278.4 86.4L 279.2 87.2L 278.4 86.4M 173.866 88.5336C 173.822 88.5776 173.778 89.4224 174.134 89.0664C 174.178 89.0224 174.222 88.1776 173.866 88.5336z"/>
<path style="stroke:none; fill:#e674a0" d="M 18.4 88.8L 19.2 89.6L 18.4 88.8z"/>
<path style="stroke:none; fill:#f7d9e1" d="M 71.2 88.8L 71.2 92L 72 92C 71.8607 90.652 71.7464 90.0048 71.2 88.8z"/>
<path style="stroke:none; fill:#eb9fba" d="M 127.466 89.3336C 127.422 89.3776 127.378 90.2224 127.734 89.8664C 127.778 89.8224 127.822 88.9776 127.466 89.3336z"/>
<path style="stroke:none; fill:#f7d9e1" d="M 228.8 88.8L 228.8 92.8L 229.6 92.8C 229.53 91.2288 229.423 90.2152 228.8 88.8z"/>
<path style="stroke:none; fill:#e674a0" d="M 279.2 88.8L 280 89.6L 279.2 88.8z"/>
<path style="stroke:none; fill:#ed99bd" d="M 17.6 90.4L 18.4 91.2L 17.6 90.4z"/>
<path style="stroke:none; fill:#eb8fb6" d="M 280 90.4L 280.8 91.2L 280 90.4z"/>
<path style="stroke:none; fill:#f4c1d3" d="M 16.8 92L 17.6 92.8L 16.8 92M 128.266 92.5336C 128.222 92.5776 128.178 93.4224 128.534 93.0664C 128.578 93.0224 128.622 92.1776 128.266 92.5336M 280.8 92L 281.6 92.8L 280.8 92z"/>
<path style="stroke:none; fill:#ed99bd" d="M 16 94.4L 16.8 95.2L 16 94.4z"/>
<path style="stroke:none; fill:#e674a0" d="M 128.8 94.4L 129.6 95.2L 128.8 94.4z"/>
<path style="stroke:none; fill:#ed99bd" d="M 281.6 94.4L 282.4 95.2L 281.6 94.4z"/>
<path style="stroke:none; fill:#e674a0" d="M 70.4 95.2L 70.4 98.4L 71.2 98.4C 71.0607 97.052 70.9464 96.4048 70.4 95.2z"/>
<path style="stroke:none; fill:#eb9fba" d="M 171.2 96L 172 96.8L 171.2 96z"/>
<path style="stroke:none; fill:#e674a0" d="M 229.6 96L 229.6 100L 230.4 100C 230.33 98.4288 230.223 97.4152 229.6 96z"/>
<path style="stroke:none; fill:#e981ac" d="M 15.2 96.8L 16 97.6L 15.2 96.8M 282.4 96.8L 283.2 97.6L 282.4 96.8z"/>
<path style="stroke:none; fill:#eb8fb6" d="M 129.6 97.6L 130.4 98.4L 129.6 97.6z"/>
<path style="stroke:none; fill:#f4c1d3" d="M 14.4 98.4L 15.2 99.2L 14.4 98.4z"/>
<path style="stroke:none; fill:#ecaac4" d="M 70.4 98.4L 70.4 101.6L 71.2 101.6C 71.0607 100.252 70.9464 99.6048 70.4 98.4z"/>
<path style="stroke:none; fill:#eb8fb6" d="M 101.6 98.4L 101.6 100.8L 102.4 100.8C 102.199 99.6392 102.148 99.3984 101.6 98.4z"/>
<path style="stroke:none; fill:#eb9fba" d="M 170.4 98.4L 171.2 99.2L 170.4 98.4z"/>
<path style="stroke:none; fill:#ecaac4" d="M 197.6 98.4C 196.664 103.931 197.6 110.323 197.6 116L 198.4 116C 198.4 110.638 199.682 103.362 197.6 98.4z"/>
<path style="stroke:none; fill:#f4c1d3" d="M 283.2 98.4L 284 99.2L 283.2 98.4z"/>
<path style="stroke:none; fill:#e674a0" d="M 14.4 99.2L 15.2 100L 14.4 99.2M 283.2 99.2L 284 100L 283.2 99.2z"/>
<path style="stroke:none; fill:#f0b5ce" d="M 130.666 100.534C 130.622 100.578 130.578 101.422 130.934 101.066C 130.978 101.022 131.022 100.178 130.666 100.534z"/>
<path style="stroke:none; fill:#ecaac4" d="M 229.6 100L 229.6 103.2L 230.4 103.2C 230.261 101.852 230.146 101.205 229.6 100z"/>
<path style="stroke:none; fill:#f4c1d3" d="M 13.6 100.8L 14.4 101.6L 13.6 100.8z"/>
<path style="stroke:none; fill:#eb8fb6" d="M 169.6 100.8L 170.4 101.6L 169.6 100.8z"/>
<path style="stroke:none; fill:#f4c1d3" d="M 284 100.8L 284.8 101.6L 284 100.8z"/>
<path style="stroke:none; fill:#e674a0" d="M 13.6 101.6L 14.4 102.4L 13.6 101.6z"/>
<path style="stroke:none; fill:#f7d9e1" d="M 70.4 101.6L 70.4 104L 71.2 104C 70.999 102.838 70.9478 102.598 70.4 101.6M 100.8 101.6L 100.8 106.4L 101.6 106.4C 101.562 104.598 101.499 103.242 100.8 101.6z"/>
<path style="stroke:none; fill:#e674a0" d="M 284 101.6L 284.8 102.4L 284 101.6z"/>
<path style="stroke:none; fill:#ecaac4" d="M 102.666 102.934C 102.622 102.978 102.578 103.822 102.934 103.466C 102.978 103.422 103.022 102.578 102.666 102.934z"/>
<path style="stroke:none; fill:#eb9fba" d="M 131.466 102.934C 131.422 102.978 131.378 103.822 131.734 103.466C 131.778 103.422 131.822 102.578 131.466 102.934z"/>
<path style="stroke:none; fill:#e674a0" d="M 196.266 102.934C 196.222 102.978 196.178 103.822 196.534 103.466C 196.578 103.422 196.622 102.578 196.266 102.934z"/>
<path style="stroke:none; fill:#eb8fb6" d="M 168.8 103.2L 169.6 104L 168.8 103.2z"/>
<path style="stroke:none; fill:#f7d9e1" d="M 229.6 103.2L 229.6 107.2L 230.4 107.2C 230.33 105.629 230.223 104.615 229.6 103.2z"/>
<path style="stroke:none; fill:#eb8fb6" d="M 12.8 104L 13.6 104.8L 12.8 104M 284.8 104L 285.6 104.8L 284.8 104z"/>
<path style="stroke:none; fill:#f4c1d3" d="M 132.266 106.134C 132.222 106.178 132.178 107.022 132.534 106.666C 132.578 106.622 132.622 105.778 132.266 106.134M 168.266 106.134C 168.222 106.178 168.178 107.022 168.534 106.666C 168.578 106.622 168.622 105.778 168.266 106.134z"/>
<path style="stroke:none; fill:#e674a0" d="M 195.466 106.134C 195.422 106.178 195.378 107.022 195.734 106.666C 195.778 106.622 195.822 105.778 195.466 106.134z"/>
<path style="stroke:none; fill:#e7699f" d="M 12.2666 106.934C 12.2222 106.978 12.1778 107.822 12.5334 107.466C 12.5778 107.422 12.6222 106.578 12.2666 106.934z"/>
<path style="stroke:none; fill:#ecaac4" d="M 100.8 106.4L 100.8 111.2L 101.6 111.2C 101.562 109.398 101.499 108.042 100.8 106.4M 103.466 106.934C 103.422 106.978 103.378 107.822 103.734 107.466C 103.778 107.422 103.822 106.578 103.466 106.934z"/>
<path style="stroke:none; fill:#e7699f" d="M 285.866 106.934C 285.822 106.978 285.778 107.822 286.134 107.466C 286.178 107.422 286.222 106.578 285.866 106.934z"/>
<path style="stroke:none; fill:#e674a0" d="M 69.6 107.2L 69.6 110.4L 70.4 110.4C 70.2607 109.052 70.1464 108.405 69.6 107.2z"/>
<path style="stroke:none; fill:#e981ac" d="M 167.2 108L 168 108.8L 167.2 108z"/>
<path style="stroke:none; fill:#e2629a" d="M 194.666 109.334C 194.622 109.378 194.578 110.222 194.934 109.866C 194.978 109.822 195.022 108.978 194.666 109.334z"/>
<path style="stroke:none; fill:#e15794" d="M 11.4666 110.134C 11.4222 110.178 11.3778 111.022 11.7334 110.666C 11.7778 110.622 11.8222 109.778 11.4666 110.134z"/>
<path style="stroke:none; fill:#e2629a" d="M 286.666 110.134C 286.622 110.178 286.578 111.022 286.934 110.666C 286.978 110.622 287.022 109.778 286.666 110.134z"/>
<path style="stroke:none; fill:#ecaac4" d="M 69.6 110.4L 69.6 113.6L 70.4 113.6C 70.2607 112.252 70.1464 111.605 69.6 110.4M 104.266 110.934C 104.222 110.978 104.178 111.822 104.534 111.466C 104.578 111.422 104.622 110.578 104.266 110.934z"/>
<path style="stroke:none; fill:#e981ac" d="M 166.4 110.4L 167.2 111.2L 166.4 110.4z"/>
<path style="stroke:none; fill:#e674a0" d="M 230.4 110.4L 230.4 114.4L 231.2 114.4C 231.13 112.829 231.023 111.815 230.4 110.4M 100.8 111.2L 100.8 116L 101.6 116C 101.562 114.198 101.499 112.842 100.8 111.2z"/>
<path style="stroke:none; fill:#eb8fb6" d="M 133.6 111.2L 134.4 112L 133.6 111.2z"/>
<path style="stroke:none; fill:#eb9fba" d="M 193.866 111.734C 193.822 111.778 193.778 112.622 194.134 112.266C 194.178 112.222 194.222 111.378 193.866 111.734z"/>
<path style="stroke:none; fill:#e7699f" d="M 10.6666 113.334C 10.6222 113.378 10.5778 114.222 10.9334 113.866C 10.9778 113.822 11.0222 112.978 10.6666 113.334M 287.466 113.334C 287.422 113.378 287.378 114.222 287.734 113.866C 287.778 113.822 287.822 112.978 287.466 113.334z"/>
<path style="stroke:none; fill:#f7d9e1" d="M 69.6 113.6L 69.6 116.8L 70.4 116.8C 70.2607 115.452 70.1464 114.805 69.6 113.6z"/>
<path style="stroke:none; fill:#f0b5ce" d="M 134.666 114.134C 134.622 114.178 134.578 115.022 134.934 114.666C 134.978 114.622 135.022 113.778 134.666 114.134z"/>
<path style="stroke:none; fill:#eb9fba" d="M 104.8 114.4L 104.8 116.8L 105.6 116.8C 105.399 115.638 105.348 115.398 104.8 114.4z"/>
<path style="stroke:none; fill:#f4c1d3" d="M 192.8 114.4L 193.6 115.2L 192.8 114.4z"/>
<path style="stroke:none; fill:#ecaac4" d="M 230.4 114.4L 230.4 117.6L 231.2 117.6C 231.061 116.252 230.946 115.605 230.4 114.4z"/>
<path style="stroke:none; fill:#e981ac" d="M 192.8 115.2L 193.6 116L 192.8 115.2z"/>
<path style="stroke:none; fill:#eb8fb6" d="M 9.86664 116.534C 9.82224 116.578 9.77776 117.422 10.1334 117.066C 10.1778 117.022 10.2222 116.178 9.86664 116.534z"/>
<path style="stroke:none; fill:#eb9fba" d="M 135.466 116.534C 135.422 116.578 135.378 117.422 135.734 117.066C 135.778 117.022 135.822 116.178 135.466 116.534z"/>
<path style="stroke:none; fill:#e674a0" d="M 197.6 116L 197.6 127.2L 198.4 127.2C 198.4 123.567 199.015 119.374 197.6 116z"/>
<path style="stroke:none; fill:#eb8fb6" d="M 288 116L 288 118.4L 288.8 118.4C 288.599 117.238 288.548 116.998 288 116z"/>
<path style="stroke:none; fill:#f0b5ce" d="M 105.866 118.134C 105.822 118.178 105.778 119.022 106.134 118.666C 106.178 118.622 106.222 117.778 105.866 118.134M 192 117.6L 192.8 118.4L 192 117.6z"/>
<path style="stroke:none; fill:#f7d9e1" d="M 230.4 117.6L 230.4 121.6L 231.2 121.6C 231.13 120.029 231.023 119.015 230.4 117.6M 164.266 118.934C 164.222 118.978 164.178 119.822 164.534 119.466C 164.578 119.422 164.622 118.578 164.266 118.934z"/>
<path style="stroke:none; fill:#e674a0" d="M 192 118.4L 192.8 119.2L 192 118.4z"/>
<path style="stroke:none; fill:#e15794" d="M 105.866 119.734C 105.822 119.778 105.778 120.622 106.134 120.266C 106.178 120.222 106.222 119.378 105.866 119.734z"/>
<path style="stroke:none; fill:#f0b5ce" d="M 136.266 119.734C 136.222 119.778 136.178 120.622 136.534 120.266C 136.578 120.222 136.622 119.378 136.266 119.734z"/>
<path style="stroke:none; fill:#ed99bd" d="M 8.8 120L 8.8 122.4L 9.6 122.4C 9.39904 121.238 9.34784 120.998 8.8 120z"/>
<path style="stroke:none; fill:#e674a0" d="M 68.8 120L 68.8 123.2L 69.6 123.2C 69.4607 121.852 69.3464 121.205 68.8 120z"/>
<path style="stroke:none; fill:#eb9fba" d="M 191.466 120.534C 191.422 120.578 191.378 121.422 191.734 121.066C 191.778 121.022 191.822 120.178 191.466 120.534z"/>
<path style="stroke:none; fill:#ed99bd" d="M 288.8 120L 288.8 122.4L 289.6 122.4C 289.399 121.238 289.348 120.998 288.8 120z"/>
<path style="stroke:none; fill:#e981ac" d="M 163.2 120.8L 164 121.6L 163.2 120.8z"/>
<path style="stroke:none; fill:#f7d9e1" d="M 100 121.6L 100 126.4L 100.8 126.4C 100.762 124.598 100.699 123.242 100 121.6z"/>
<path style="stroke:none; fill:#eb9fba" d="M 106.4 121.6L 106.4 124L 107.2 124C 106.999 122.838 106.948 122.598 106.4 121.6z"/>
<path style="stroke:none; fill:#f4c1d3" d="M 137.066 122.934C 137.022 122.978 136.978 123.822 137.334 123.466C 137.378 123.422 137.422 122.578 137.066 122.934z"/>
<path style="stroke:none; fill:#ecaac4" d="M 68.8 123.2L 68.8 126.4L 69.6 126.4C 69.4607 125.052 69.3464 124.405 68.8 123.2z"/>
<path style="stroke:none; fill:#e981ac" d="M 190.666 123.734C 190.622 123.778 190.578 124.622 190.934 124.266C 190.978 124.222 191.022 123.378 190.666 123.734z"/>
<path style="stroke:none; fill:#f7d9e1" d="M 162.666 124.534C 162.622 124.578 162.578 125.422 162.934 125.066C 162.978 125.022 163.022 124.178 162.666 124.534z"/>
<path style="stroke:none; fill:#f0b5ce" d="M 8.26664 125.334C 8.22224 125.378 8.17776 126.222 8.53336 125.866C 8.57784 125.822 8.62224 124.978 8.26664 125.334M 107.2 124.8L 107.2 127.2L 108 127.2C 107.799 126.038 107.748 125.798 107.2 124.8z"/>
<path style="stroke:none; fill:#eb9fba" d="M 137.866 125.334C 137.822 125.378 137.778 126.222 138.134 125.866C 138.178 125.822 138.222 124.978 137.866 125.334z"/>
<path style="stroke:none; fill:#ecaac4" d="M 289.866 125.334C 289.822 125.378 289.778 126.222 290.134 125.866C 290.178 125.822 290.222 124.978 289.866 125.334z"/>
<path style="stroke:none; fill:#e674a0" d="M 231.2 125.6L 231.2 128.8L 232 128.8C 231.861 127.452 231.746 126.805 231.2 125.6M 8 126.4L 8 128.8L 8.8 128.8C 8.59904 127.638 8.54784 127.398 8 126.4z"/>
<path style="stroke:none; fill:#f7d9e1" d="M 68.8 126.4L 68.8 129.6L 69.6 129.6C 69.4607 128.252 69.3464 127.605 68.8 126.4z"/>
<path style="stroke:none; fill:#ecaac4" d="M 100 126.4L 100 132L 100.8 132C 100.785 129.966 100.788 128.266 100 126.4z"/>
<path style="stroke:none; fill:#e981ac" d="M 161.6 126.4L 162.4 127.2L 161.6 126.4z"/>
<path style="stroke:none; fill:#e2629a" d="M 189.866 126.934C 189.822 126.978 189.778 127.822 190.134 127.466C 190.178 127.422 190.222 126.578 189.866 126.934z"/>
<path style="stroke:none; fill:#e674a0" d="M 289.866 126.934C 289.822 126.978 289.778 127.822 290.134 127.466C 290.178 127.422 290.222 126.578 289.866 126.934z"/>
<path style="stroke:none; fill:#eb9fba" d="M 138.666 128.534C 138.622 128.578 138.578 129.422 138.934 129.066C 138.978 129.022 139.022 128.178 138.666 128.534z"/>
<path style="stroke:none; fill:#eb8fb6" d="M 108 128.8L 108 131.2L 108.8 131.2C 108.599 130.038 108.548 129.798 108 128.8z"/>
<path style="stroke:none; fill:#eb9fba" d="M 160.8 128.8L 160.8 131.2L 161.6 131.2C 161.399 130.038 161.348 129.798 160.8 128.8z"/>
<path style="stroke:none; fill:#f4c1d3" d="M 188.8 128.8L 189.6 129.6L 188.8 128.8z"/>
<path style="stroke:none; fill:#ecaac4" d="M 231.2 128.8L 231.2 132.8L 232 132.8C 231.93 131.229 231.823 130.215 231.2 128.8z"/>
<path style="stroke:none; fill:#e981ac" d="M 188.8 129.6L 189.6 130.4L 188.8 129.6z"/>
<path style="stroke:none; fill:#f7d9e1" d="M 7.46666 130.934C 7.42226 130.978 7.37774 131.822 7.73334 131.466C 7.77781 131.422 7.82222 130.578 7.46666 130.934M 290.666 130.934C 290.622 130.978 290.578 131.822 290.934 131.466C 290.978 131.422 291.022 130.578 290.666 130.934z"/>
<path style="stroke:none; fill:#ecaac4" d="M 139.466 131.734C 139.422 131.778 139.378 132.622 139.734 132.266C 139.778 132.222 139.822 131.378 139.466 131.734z"/>
<path style="stroke:none; fill:#eb9fba" d="M 188.266 131.734C 188.222 131.778 188.178 132.622 188.534 132.266C 188.578 132.222 188.622 131.378 188.266 131.734z"/>
<path style="stroke:none; fill:#ed99bd" d="M 7.2 132L 7.2 135.2L 8 135.2C 7.86071 133.852 7.74643 133.205 7.2 132z"/>
<path style="stroke:none; fill:#e674a0" d="M 100 132L 100 136.8L 100.8 136.8C 100.762 134.998 100.699 133.642 100 132z"/>
<path style="stroke:none; fill:#eb9fba" d="M 108.8 132L 108.8 134.4L 109.6 134.4C 109.399 133.238 109.348 132.998 108.8 132z"/>
<path style="stroke:none; fill:#f0b5ce" d="M 160.266 132.534C 160.222 132.578 160.178 133.422 160.534 133.066C 160.578 133.022 160.622 132.178 160.266 132.534M 290.4 132L 290.4 134.4L 291.2 134.4C 290.999 133.238 290.948 132.998 290.4 132z"/>
<path style="stroke:none; fill:#e674a0" d="M 68 132.8L 68 136L 68.8 136C 68.6607 134.652 68.5464 134.005 68 132.8z"/>
<path style="stroke:none; fill:#f7d9e1" d="M 231.2 132.8L 231.2 136L 232 136C 231.861 134.652 231.746 134.005 231.2 132.8z"/>
<path style="stroke:none; fill:#ecaac4" d="M 140.266 134.934C 140.222 134.978 140.178 135.822 140.534 135.466C 140.578 135.422 140.622 134.578 140.266 134.934z"/>
<path style="stroke:none; fill:#f0b5ce" d="M 187.2 134.4L 188 135.2L 187.2 134.4z"/>
<path style="stroke:none; fill:#e7699f" d="M 290.4 134.4L 290.4 137.6L 291.2 137.6C 291.061 136.252 290.946 135.605 290.4 134.4z"/>
<path style="stroke:none; fill:#e15794" d="M 7.2 135.2L 7.2 140.8L 8 140.8C 7.985 138.766 7.98762 137.066 7.2 135.2z"/>
<path style="stroke:none; fill:#f4c1d3" d="M 159.466 135.734C 159.422 135.778 159.378 136.622 159.734 136.266C 159.778 136.222 159.822 135.378 159.466 135.734z"/>
<path style="stroke:none; fill:#e674a0" d="M 187.2 135.2L 188 136L 187.2 135.2z"/>
<path style="stroke:none; fill:#ecaac4" d="M 68 136L 68 139.2L 68.8 139.2C 68.6607 137.852 68.5464 137.205 68 136z"/>
<path style="stroke:none; fill:#e674a0" d="M 109.866 136.534C 109.822 136.578 109.778 137.422 110.134 137.066C 110.178 137.022 110.222 136.178 109.866 136.534z"/>
<path style="stroke:none; fill:#f7d9e1" d="M 198.4 136L 198.4 143.2L 199.2 143.2C 199.198 140.699 199.37 138.312 198.4 136z"/>
<path style="stroke:none; fill:#eb8fb6" d="M 186.666 137.334C 186.622 137.378 186.578 138.222 186.934 137.866C 186.978 137.822 187.022 136.978 186.666 137.334z"/>
<path style="stroke:none; fill:#ecaac4" d="M 141.066 138.134C 141.022 138.178 140.978 139.022 141.334 138.666C 141.378 138.622 141.422 137.778 141.066 138.134z"/>
<path style="stroke:none; fill:#eb9fba" d="M 158.4 137.6L 158.4 140L 159.2 140C 158.999 138.838 158.948 138.598 158.4 137.6z"/>
<path style="stroke:none; fill:#f7d9e1" d="M 68 139.2L 68 141.6L 68.8 141.6C 68.599 140.438 68.5478 140.198 68 139.2z"/>
<path style="stroke:none; fill:#e674a0" d="M 110.666 139.734C 110.622 139.778 110.578 140.622 110.934 140.266C 110.978 140.222 111.022 139.378 110.666 139.734z"/>
<path style="stroke:none; fill:#eb9fba" d="M 185.6 140L 186.4 140.8L 185.6 140z"/>
<path style="stroke:none; fill:#e674a0" d="M 232 140L 232 143.2L 232.8 143.2C 232.661 141.852 232.546 141.205 232 140z"/>
<path style="stroke:none; fill:#ecaac4" d="M 141.866 141.334C 141.822 141.378 141.778 142.222 142.134 141.866C 142.178 141.822 142.222 140.978 141.866 141.334M 157.866 141.334C 157.822 141.378 157.778 142.222 158.134 141.866C 158.178 141.822 158.222 140.978 157.866 141.334z"/>
<path style="stroke:none; fill:#f7d9e1" d="M 99.2 141.6L 99.2 146.4L 100 146.4C 99.9624 144.598 99.8992 143.242 99.2 141.6z"/>
<path style="stroke:none; fill:#e674a0" d="M 111.466 142.934C 111.422 142.978 111.378 143.822 111.734 143.466C 111.778 143.422 111.822 142.578 111.466 142.934z"/>
<path style="stroke:none; fill:#f0b5ce" d="M 184.8 142.4L 185.6 143.2L 184.8 142.4z"/>
<path style="stroke:none; fill:#e674a0" d="M 184.8 143.2L 185.6 144L 184.8 143.2z"/>
<path style="stroke:none; fill:#ecaac4" d="M 198.4 143.2L 198.4 149.6L 199.2 149.6C 199.194 147.332 199.278 145.29 198.4 143.2M 232 143.2L 232 147.2L 232.8 147.2C 232.73 145.629 232.623 144.615 232 143.2M 142.666 144.534C 142.622 144.578 142.578 145.422 142.934 145.066C 142.978 145.022 143.022 144.178 142.666 144.534z"/>
<path style="stroke:none; fill:#f0b5ce" d="M 157.066 144.534C 157.022 144.578 156.978 145.422 157.334 145.066C 157.378 145.022 157.422 144.178 157.066 144.534z"/>
<path style="stroke:none; fill:#e674a0" d="M 67.2 144.8L 67.2 148L 68 148C 67.8607 146.652 67.7464 146.005 67.2 144.8z"/>
<path style="stroke:none; fill:#f4c1d3" d="M 184 144.8L 184.8 145.6L 184 144.8z"/>
<path style="stroke:none; fill:#e674a0" d="M 112.266 146.134C 112.222 146.178 112.178 147.022 112.534 146.666C 112.578 146.622 112.622 145.778 112.266 146.134z"/>
<path style="stroke:none; fill:#e981ac" d="M 184 145.6L 184.8 146.4L 184 145.6z"/>
<path style="stroke:none; fill:#ecaac4" d="M 99.2 146.4L 99.2 150.4L 100 150.4C 99.9296 148.829 99.8232 147.815 99.2 146.4z"/>
<path style="stroke:none; fill:#eb9fba" d="M 143.466 147.734C 143.422 147.778 143.378 148.622 143.734 148.266C 143.778 148.222 143.822 147.378 143.466 147.734z"/>
<path style="stroke:none; fill:#f4c1d3" d="M 156.266 147.734C 156.222 147.778 156.178 148.622 156.534 148.266C 156.578 148.222 156.622 147.378 156.266 147.734z"/>
<path style="stroke:none; fill:#f7d9e1" d="M 232 147.2L 232 150.4L 232.8 150.4C 232.661 149.052 232.546 148.405 232 147.2z"/>
<path style="stroke:none; fill:#ecaac4" d="M 67.2 148L 67.2 151.2L 68 151.2C 67.8607 149.852 67.7464 149.205 67.2 148z"/>
<path style="stroke:none; fill:#eb9fba" d="M 112.8 148L 112.8 150.4L 113.6 150.4C 113.399 149.238 113.348 148.998 112.8 148z"/>
<path style="stroke:none; fill:#eb8fb6" d="M 183.2 148L 184 148.8L 183.2 148z"/>
<path style="stroke:none; fill:#e2629a" d="M 7.2 149.6L 7.2 154.4L 8 154.4C 7.96223 152.598 7.8994 151.242 7.2 149.6z"/>
<path style="stroke:none; fill:#e674a0" d="M 198.4 149.6L 198.4 155.2L 199.2 155.2C 199.185 153.166 199.188 151.466 198.4 149.6z"/>
<path style="stroke:none; fill:#e2629a" d="M 290.4 149.6L 290.4 154.4L 291.2 154.4C 291.162 152.598 291.099 151.242 290.4 149.6z"/>
<path style="stroke:none; fill:#e674a0" d="M 99.2 150.4L 99.2 155.2L 100 155.2C 99.9624 153.398 99.8992 152.042 99.2 150.4z"/>
<path style="stroke:none; fill:#eb8fb6" d="M 144.266 150.934C 144.222 150.978 144.178 151.822 144.534 151.466C 144.578 151.422 144.622 150.578 144.266 150.934z"/>
<path style="stroke:none; fill:#f6ccdd" d="M 155.466 150.934C 155.422 150.978 155.378 151.822 155.734 151.466C 155.778 151.422 155.822 150.578 155.466 150.934z"/>
<path style="stroke:none; fill:#eb9fba" d="M 182.4 150.4L 183.2 151.2L 182.4 150.4z"/>
<path style="stroke:none; fill:#f7d9e1" d="M 67.2 151.2L 67.2 154.4L 68 154.4C 67.8607 153.052 67.7464 152.405 67.2 151.2z"/>
<path style="stroke:none; fill:#eb8fb6" d="M 113.6 152L 114.4 152.8L 113.6 152z"/>
<path style="stroke:none; fill:#eb9fba" d="M 154.666 153.334C 154.622 153.378 154.578 154.222 154.934 153.866C 154.978 153.822 155.022 152.978 154.666 153.334z"/>
<path style="stroke:none; fill:#e2629a" d="M 181.866 153.334C 181.822 153.378 181.778 154.222 182.134 153.866C 182.178 153.822 182.222 152.978 181.866 153.334z"/>
<path style="stroke:none; fill:#eb8fb6" d="M 7.2 154.4L 7.2 156.8L 8 156.8C 7.79903 155.638 7.74783 155.398 7.2 154.4z"/>
<path style="stroke:none; fill:#e981ac" d="M 114.666 154.934C 114.622 154.978 114.578 155.822 114.934 155.466C 114.978 155.422 115.022 154.578 114.666 154.934z"/>
<path style="stroke:none; fill:#ecaac4" d="M 145.066 154.934C 145.022 154.978 144.978 155.822 145.334 155.466C 145.378 155.422 145.422 154.578 145.066 154.934z"/>
<path style="stroke:none; fill:#e674a0" d="M 232.8 154.4L 232.8 158.4L 233.6 158.4C 233.53 156.829 233.423 155.815 232.8 154.4z"/>
<path style="stroke:none; fill:#eb8fb6" d="M 290.4 154.4L 290.4 156.8L 291.2 156.8C 290.999 155.638 290.948 155.398 290.4 154.4z"/>
<path style="stroke:none; fill:#f0b5ce" d="M 180.8 155.2L 181.6 156L 180.8 155.2z"/>
<path style="stroke:none; fill:#eb9fba" d="M 153.866 156.534C 153.822 156.578 153.778 157.422 154.134 157.066C 154.178 157.022 154.222 156.178 153.866 156.534z"/>
<path style="stroke:none; fill:#f4c1d3" d="M 7.2 156.8L 7.2 159.2L 8 159.2C 7.79903 158.038 7.74783 157.798 7.2 156.8M 290.4 156.8L 290.4 159.2L 291.2 159.2C 290.999 158.038 290.948 157.798 290.4 156.8z"/>
<path style="stroke:none; fill:#e674a0" d="M 66.4 157.6L 66.4 160.8L 67.2 160.8C 67.0607 159.452 66.9464 158.805 66.4 157.6z"/>
<path style="stroke:none; fill:#ecaac4" d="M 115.2 157.6L 116 158.4L 115.2 157.6z"/>
<path style="stroke:none; fill:#eb9fba" d="M 145.866 158.134C 145.822 158.178 145.778 159.022 146.134 158.666C 146.178 158.622 146.222 157.778 145.866 158.134z"/>
<path style="stroke:none; fill:#f0b5ce" d="M 180 157.6L 180.8 158.4L 180 157.6z"/>
<path style="stroke:none; fill:#f7d9e1" d="M 98.4 158.4L 98.4 162.4L 99.2 162.4C 99.1296 160.829 99.0232 159.815 98.4 158.4z"/>
<path style="stroke:none; fill:#ecaac4" d="M 232.8 158.4L 232.8 161.6L 233.6 161.6C 233.461 160.252 233.346 159.605 232.8 158.4M 153.066 159.734C 153.022 159.778 152.978 160.622 153.334 160.266C 153.378 160.222 153.422 159.378 153.066 159.734z"/>
<path style="stroke:none; fill:#f4c1d3" d="M 179.2 160L 180 160.8L 179.2 160z"/>
<path style="stroke:none; fill:#e15794" d="M 8 160.8L 8 163.2L 8.8 163.2C 8.59904 162.038 8.54784 161.798 8 160.8z"/>
<path style="stroke:none; fill:#ecaac4" d="M 66.4 160.8L 66.4 164L 67.2 164C 67.0607 162.652 66.9464 162.005 66.4 160.8z"/>
<path style="stroke:none; fill:#eb8fb6" d="M 116 160.8L 116.8 161.6L 116 160.8z"/>
<path style="stroke:none; fill:#e981ac" d="M 179.2 160.8L 180 161.6L 179.2 160.8z"/>
<path style="stroke:none; fill:#f7d9e1" d="M 199.2 160.8L 199.2 166.4L 200 166.4C 199.985 164.366 199.988 162.666 199.2 160.8z"/>
<path style="stroke:none; fill:#e15794" d="M 289.6 160.8L 289.6 163.2L 290.4 163.2C 290.199 162.038 290.148 161.798 289.6 160.8z"/>
<path style="stroke:none; fill:#ecaac4" d="M 146.666 162.134C 146.622 162.178 146.578 163.022 146.934 162.666C 146.978 162.622 147.022 161.778 146.666 162.134z"/>
<path style="stroke:none; fill:#f7d9e1" d="M 232.8 161.6L 232.8 165.6L 233.6 165.6C 233.53 164.029 233.423 163.015 232.8 161.6z"/>
<path style="stroke:none; fill:#ecaac4" d="M 98.4 162.4L 98.4 166.4L 99.2 166.4C 99.1296 164.829 99.0232 163.815 98.4 162.4M 152.266 162.934C 152.222 162.978 152.178 163.822 152.534 163.466C 152.578 163.422 152.622 162.578 152.266 162.934z"/>
<path style="stroke:none; fill:#eb8fb6" d="M 178.666 162.934C 178.622 162.978 178.578 163.822 178.934 163.466C 178.978 163.422 179.022 162.578 178.666 162.934z"/>
<path style="stroke:none; fill:#f0b5ce" d="M 8 163.2L 8 165.6L 8.8 165.6C 8.59904 164.438 8.54784 164.198 8 163.2z"/>
<path style="stroke:none; fill:#e981ac" d="M 117.066 163.734C 117.022 163.778 116.978 164.622 117.334 164.266C 117.378 164.222 117.422 163.378 117.066 163.734z"/>
<path style="stroke:none; fill:#ecaac4" d="M 289.866 163.734C 289.822 163.778 289.778 164.622 290.134 164.266C 290.178 164.222 290.222 163.378 289.866 163.734z"/>
<path style="stroke:none; fill:#f7d9e1" d="M 66.4 164L 66.4 167.2L 67.2 167.2C 67.0607 165.852 66.9464 165.205 66.4 164z"/>
<path style="stroke:none; fill:#eb8fb6" d="M 147.466 165.334C 147.422 165.378 147.378 166.222 147.734 165.866C 147.778 165.822 147.822 164.978 147.466 165.334z"/>
<path style="stroke:none; fill:#ecaac4" d="M 151.466 166.134C 151.422 166.178 151.378 167.022 151.734 166.666C 151.778 166.622 151.822 165.778 151.466 166.134z"/>
<path style="stroke:none; fill:#eb8fb6" d="M 177.6 165.6L 178.4 166.4L 177.6 165.6z"/>
<path style="stroke:none; fill:#e674a0" d="M 98.4 166.4L 98.4 170.4L 99.2 170.4C 99.1296 168.829 99.0232 167.815 98.4 166.4z"/>
<path style="stroke:none; fill:#e2629a" d="M 117.866 166.934C 117.822 166.978 117.778 167.822 118.134 167.466C 118.178 167.422 118.222 166.578 117.866 166.934z"/>
<path style="stroke:none; fill:#f7d9e1" d="M 147.466 166.934C 147.422 166.978 147.378 167.822 147.734 167.466C 147.778 167.422 147.822 166.578 147.466 166.934z"/>
<path style="stroke:none; fill:#ecaac4" d="M 199.2 166.4L 199.2 171.2L 200 171.2C 199.962 169.398 199.899 168.042 199.2 166.4z"/>
<path style="stroke:none; fill:#e981ac" d="M 9.06664 167.734C 9.02224 167.778 8.97776 168.622 9.33336 168.266C 9.37776 168.222 9.42224 167.378 9.06664 167.734M 289.066 167.734C 289.022 167.778 288.978 168.622 289.334 168.266C 289.378 168.222 289.422 167.378 289.066 167.734z"/>
<path style="stroke:none; fill:#eb9fba" d="M 176.8 168L 177.6 168.8L 176.8 168z"/>
<path style="stroke:none; fill:#f6ccdd" d="M 9.06664 169.334C 9.02224 169.378 8.97776 170.222 9.33336 169.866C 9.37784 169.822 9.42224 168.978 9.06664 169.334z"/>
<path style="stroke:none; fill:#eb8fb6" d="M 118.666 169.334C 118.622 169.378 118.578 170.222 118.934 169.866C 118.978 169.822 119.022 168.978 118.666 169.334M 148.266 169.334C 148.222 169.378 148.178 170.222 148.534 169.866C 148.578 169.822 148.622 168.978 148.266 169.334z"/>
<path style="stroke:none; fill:#ecaac4" d="M 150.666 169.334C 150.622 169.378 150.578 170.222 150.934 169.866C 150.978 169.822 151.022 168.978 150.666 169.334z"/>
<path style="stroke:none; fill:#e674a0" d="M 233.6 168.8L 233.6 172.8L 234.4 172.8C 234.33 171.229 234.223 170.215 233.6 168.8z"/>
<path style="stroke:none; fill:#f6ccdd" d="M 289.066 169.334C 289.022 169.378 288.978 170.222 289.334 169.866C 289.378 169.822 289.422 168.978 289.066 169.334z"/>
<path style="stroke:none; fill:#e674a0" d="M 65.6 170.4L 65.6 173.6L 66.4 173.6C 66.2607 172.252 66.1464 171.605 65.6 170.4z"/>
<path style="stroke:none; fill:#f7d9e1" d="M 148.266 170.934C 148.222 170.978 148.178 171.822 148.534 171.466C 148.578 171.422 148.622 170.578 148.266 170.934z"/>
<path style="stroke:none; fill:#f0b5ce" d="M 176 170.4L 176.8 171.2L 176 170.4z"/>
<path style="stroke:none; fill:#e674a0" d="M 199.2 171.2L 199.2 176.8L 200 176.8C 199.985 174.766 199.988 173.066 199.2 171.2z"/>
<path style="stroke:none; fill:#eb8fb6" d="M 9.6 172L 9.6 174.4L 10.4 174.4C 10.199 173.238 10.1478 172.998 9.6 172z"/>
<path style="stroke:none; fill:#f0b5ce" d="M 119.2 172L 120 172.8L 119.2 172z"/>
<path style="stroke:none; fill:#eb8fb6" d="M 149.6 172C 148.811 173.182 148.8 172.962 148.8 174.4C 149.831 173.246 149.921 173.413 149.6 172M 288 172L 288 174.4L 288.8 174.4C 288.599 173.238 288.548 172.998 288 172z"/>
<path style="stroke:none; fill:#e674a0" d="M 119.2 172.8L 120 173.6L 119.2 172.8z"/>
<path style="stroke:none; fill:#f4c1d3" d="M 175.2 172.8L 176 173.6L 175.2 172.8z"/>
<path style="stroke:none; fill:#ecaac4" d="M 233.6 172.8L 233.6 176L 234.4 176C 234.261 174.652 234.146 174.005 233.6 172.8M 65.6 173.6L 65.6 176.8L 66.4 176.8C 66.2607 175.452 66.1464 174.805 65.6 173.6z"/>
<path style="stroke:none; fill:#e981ac" d="M 175.2 173.6L 176 174.4L 175.2 173.6z"/>
<path style="stroke:none; fill:#f7d9e1" d="M 97.6 174.4L 97.6 179.2L 98.4 179.2C 98.3624 177.398 98.2992 176.042 97.6 174.4z"/>
<path style="stroke:none; fill:#eb9fba" d="M 120.266 174.934C 120.222 174.978 120.178 175.822 120.534 175.466C 120.578 175.422 120.622 174.578 120.266 174.934z"/>
<path style="stroke:none; fill:#eb8fb6" d="M 174.666 175.734C 174.622 175.778 174.578 176.622 174.934 176.266C 174.978 176.222 175.022 175.378 174.666 175.734z"/>
<path style="stroke:none; fill:#ed99bd" d="M 10.6666 176.534C 10.6222 176.578 10.5778 177.422 10.9334 177.066C 10.9778 177.022 11.0222 176.178 10.6666 176.534z"/>
<path style="stroke:none; fill:#f7d9e1" d="M 233.6 176L 233.6 180L 234.4 180C 234.33 178.429 234.223 177.415 233.6 176z"/>
<path style="stroke:none; fill:#ed99bd" d="M 287.466 176.534C 287.422 176.578 287.378 177.422 287.734 177.066C 287.778 177.022 287.822 176.178 287.466 176.534z"/>
<path style="stroke:none; fill:#f7d9e1" d="M 65.6 176.8L 65.6 180L 66.4 180C 66.2607 178.652 66.1464 178.005 65.6 176.8z"/>
<path style="stroke:none; fill:#f4c1d3" d="M 120.8 177.6L 121.6 178.4L 120.8 177.6z"/>
<path style="stroke:none; fill:#eb9fba" d="M 173.866 178.134C 173.822 178.178 173.778 179.022 174.134 178.666C 174.178 178.622 174.222 177.778 173.866 178.134z"/>
<path style="stroke:none; fill:#e981ac" d="M 120.8 178.4L 121.6 179.2L 120.8 178.4z"/>
<path style="stroke:none; fill:#ecaac4" d="M 97.6 179.2L 97.6 183.2L 98.4 183.2C 98.3296 181.629 98.2232 180.615 97.6 179.2z"/>
<path style="stroke:none; fill:#f6ccdd" d="M 11.4666 180.534C 11.4222 180.578 11.3778 181.422 11.7334 181.066C 11.7778 181.022 11.8222 180.178 11.4666 180.534M 286.666 180.534C 286.622 180.578 286.578 181.422 286.934 181.066C 286.978 181.022 287.022 180.178 286.666 180.534z"/>
<path style="stroke:none; fill:#ecaac4" d="M 121.6 180.8L 122.4 181.6L 121.6 180.8z"/>
<path style="stroke:none; fill:#e2629a" d="M 173.066 181.334C 173.022 181.378 172.978 182.222 173.334 181.866C 173.378 181.822 173.422 180.978 173.066 181.334z"/>
<path style="stroke:none; fill:#f7d9e1" d="M 200 181.6L 200 187.2L 200.8 187.2C 200.785 185.166 200.788 183.466 200 181.6z"/>
<path style="stroke:none; fill:#eb9fba" d="M 12.2666 182.934C 12.2222 182.978 12.1778 183.822 12.5334 183.466C 12.5778 183.422 12.6222 182.578 12.2666 182.934z"/>
<path style="stroke:none; fill:#e674a0" d="M 64.8 182.4L 64.8 185.6L 65.6 185.6C 65.4607 184.252 65.3464 183.605 64.8 182.4z"/>
<path style="stroke:none; fill:#ecaac4" d="M 285.866 182.934C 285.822 182.978 285.778 183.822 286.134 183.466C 286.178 183.422 286.222 182.578 285.866 182.934z"/>
<path style="stroke:none; fill:#e674a0" d="M 97.6 183.2L 97.6 187.2L 98.4 187.2C 98.3296 185.629 98.2232 184.615 97.6 183.2z"/>
<path style="stroke:none; fill:#f0b5ce" d="M 172 183.2L 172.8 184L 172 183.2z"/>
<path style="stroke:none; fill:#e674a0" d="M 234.4 183.2L 234.4 187.2L 235.2 187.2C 235.13 185.629 235.023 184.615 234.4 183.2z"/>
<path style="stroke:none; fill:#eb8fb6" d="M 122.4 184L 123.2 184.8L 122.4 184M 12.8 185.6L 13.6 186.4L 12.8 185.6z"/>
<path style="stroke:none; fill:#ecaac4" d="M 64.8 185.6L 64.8 188.8L 65.6 188.8C 65.4607 187.452 65.3464 186.805 64.8 185.6z"/>
<path style="stroke:none; fill:#f4c1d3" d="M 171.2 185.6L 172 186.4L 171.2 185.6z"/>
<path style="stroke:none; fill:#eb8fb6" d="M 284.8 185.6L 285.6 186.4L 284.8 185.6z"/>
<path style="stroke:none; fill:#e981ac" d="M 123.466 186.934C 123.422 186.978 123.378 187.822 123.734 187.466C 123.778 187.422 123.822 186.578 123.466 186.934M 171.2 186.4L 172 187.2L 171.2 186.4z"/>
<path style="stroke:none; fill:#ecaac4" d="M 200 187.2L 200 192L 200.8 192C 200.762 190.198 200.699 188.842 200 187.2M 234.4 187.2L 234.4 191.2L 235.2 191.2C 235.13 189.629 235.023 188.615 234.4 187.2z"/>
<path style="stroke:none; fill:#e981ac" d="M 13.6 188L 14.4 188.8L 13.6 188M 284 188L 284.8 188.8L 284 188z"/>
<path style="stroke:none; fill:#f7d9e1" d="M 64.8 188.8L 64.8 192L 65.6 192C 65.4607 190.652 65.3464 190.005 64.8 188.8z"/>
<path style="stroke:none; fill:#eb8fb6" d="M 170.4 188.8L 171.2 189.6L 170.4 188.8z"/>
<path style="stroke:none; fill:#e2629a" d="M 124.266 190.134C 124.222 190.178 124.178 191.022 124.534 190.666C 124.578 190.622 124.622 189.778 124.266 190.134z"/>
<path style="stroke:none; fill:#e981ac" d="M 14.4 190.4L 15.2 191.2L 14.4 190.4z"/>
<path style="stroke:none; fill:#eb9fba" d="M 169.866 190.934C 169.822 190.978 169.778 191.822 170.134 191.466C 170.178 191.422 170.222 190.578 169.866 190.934z"/>
<path style="stroke:none; fill:#e981ac" d="M 283.2 190.4L 284 191.2L 283.2 190.4z"/>
<path style="stroke:none; fill:#f7d9e1" d="M 234.4 191.2L 234.4 194.4L 235.2 194.4C 235.061 193.052 234.946 192.405 234.4 191.2M 96.8 192L 96.8 196L 97.6 196C 97.5296 194.429 97.4232 193.415 96.8 192z"/>
<path style="stroke:none; fill:#eb8fb6" d="M 125.066 192.534C 125.022 192.578 124.978 193.422 125.334 193.066C 125.378 193.022 125.422 192.178 125.066 192.534z"/>
<path style="stroke:none; fill:#e674a0" d="M 200 192L 200 197.6L 200.8 197.6C 200.785 195.566 200.788 193.866 200 192z"/>
<path style="stroke:none; fill:#e981ac" d="M 15.2 192.8L 16 193.6L 15.2 192.8M 282.4 192.8L 283.2 193.6L 282.4 192.8z"/>
<path style="stroke:none; fill:#ecaac4" d="M 168.8 193.6L 169.6 194.4L 168.8 193.6z"/>
<path style="stroke:none; fill:#ed99bd" d="M 16 195.2L 16.8 196L 16 195.2z"/>
<path style="stroke:none; fill:#e674a0" d="M 64 195.2L 64 198.4L 64.8 198.4C 64.6607 197.052 64.5464 196.405 64 195.2z"/>
<path style="stroke:none; fill:#f0b5ce" d="M 125.6 195.2L 126.4 196L 125.6 195.2z"/>
<path style="stroke:none; fill:#ed99bd" d="M 281.6 195.2L 282.4 196L 281.6 195.2z"/>
<path style="stroke:none; fill:#ecaac4" d="M 96.8 196L 96.8 200L 97.6 200C 97.5296 198.429 97.4232 197.415 96.8 196z"/>
<path style="stroke:none; fill:#e674a0" d="M 125.6 196L 126.4 196.8L 125.6 196z"/>
<path style="stroke:none; fill:#f0b5ce" d="M 168 196L 168.8 196.8L 168 196z"/>
<path style="stroke:none; fill:#e674a0" d="M 168 196.8L 168.8 197.6L 168 196.8z"/>
<path style="stroke:none; fill:#f4c1d3" d="M 16.8 197.6L 17.6 198.4L 16.8 197.6z"/>
<path style="stroke:none; fill:#eb9fba" d="M 126.666 198.134C 126.622 198.178 126.578 199.022 126.934 198.666C 126.978 198.622 127.022 197.778 126.666 198.134z"/>
<path style="stroke:none; fill:#f4c1d3" d="M 280.8 197.6L 281.6 198.4L 280.8 197.6z"/>
<path style="stroke:none; fill:#ecaac4" d="M 64 198.4L 64 201.6L 64.8 201.6C 64.6607 200.252 64.5464 199.605 64 198.4z"/>
<path style="stroke:none; fill:#f4c1d3" d="M 167.2 198.4L 168 199.2L 167.2 198.4z"/>
<path style="stroke:none; fill:#e674a0" d="M 235.2 198.4L 235.2 201.6L 236 201.6C 235.861 200.252 235.746 199.605 235.2 198.4z"/>
<path style="stroke:none; fill:#eb8fb6" d="M 17.6 199.2L 18.4 200L 17.6 199.2z"/>
<path style="stroke:none; fill:#e981ac" d="M 167.2 199.2L 168 200L 167.2 199.2z"/>
<path style="stroke:none; fill:#eb8fb6" d="M 280 199.2L 280.8 200L 280 199.2z"/>
<path style="stroke:none; fill:#e674a0" d="M 96.8 200L 96.8 204.8L 97.6 204.8C 97.5624 202.998 97.4992 201.642 96.8 200M 18.4 200.8L 19.2 201.6L 18.4 200.8z"/>
<path style="stroke:none; fill:#f4c1d3" d="M 127.2 200.8L 128 201.6L 127.2 200.8z"/>
<path style="stroke:none; fill:#e674a0" d="M 279.2 200.8L 280 201.6L 279.2 200.8z"/>
<path style="stroke:none; fill:#f7d9e1" d="M 64 201.6L 64 204.8L 64.8 204.8C 64.6607 203.452 64.5464 202.805 64 201.6z"/>
<path style="stroke:none; fill:#e981ac" d="M 127.2 201.6L 128 202.4L 127.2 201.6z"/>
<path style="stroke:none; fill:#eb8fb6" d="M 166.4 201.6L 167.2 202.4L 166.4 201.6z"/>
<path style="stroke:none; fill:#ecaac4" d="M 235.2 201.6L 235.2 205.6L 236 205.6C 235.93 204.029 235.823 203.015 235.2 201.6z"/>
<path style="stroke:none; fill:#f7d9e1" d="M 200.8 202.4L 200.8 207.2L 201.6 207.2C 201.562 205.398 201.499 204.042 200.8 202.4z"/>
<path style="stroke:none; fill:#f0b5ce" d="M 19.2 203.2L 20 204L 19.2 203.2M 278.4 203.2L 279.2 204L 278.4 203.2z"/>
<path style="stroke:none; fill:#ecaac4" d="M 128 204L 128.8 204.8L 128 204z"/>
<path style="stroke:none; fill:#eb9fba" d="M 165.6 204L 166.4 204.8L 165.6 204z"/>
<path style="stroke:none; fill:#ecaac4" d="M 20 204.8L 20.8 205.6L 20 204.8M 277.6 204.8L 278.4 205.6L 277.6 204.8z"/>
<path style="stroke:none; fill:#f7d9e1" d="M 235.2 205.6L 235.2 208.8L 236 208.8C 235.861 207.452 235.746 206.805 235.2 205.6z"/>
<path style="stroke:none; fill:#ed99bd" d="M 20.8 206.4L 21.6 207.2L 20.8 206.4z"/>
<path style="stroke:none; fill:#ecaac4" d="M 164.8 206.4L 165.6 207.2L 164.8 206.4z"/>
<path style="stroke:none; fill:#ed99bd" d="M 276.8 206.4L 277.6 207.2L 276.8 206.4z"/>
<path style="stroke:none; fill:#eb8fb6" d="M 128.8 207.2L 129.6 208L 128.8 207.2z"/>
<path style="stroke:none; fill:#ecaac4" d="M 200.8 207.2L 200.8 212.8L 201.6 212.8C 201.585 210.766 201.588 209.066 200.8 207.2z"/>
<path style="stroke:none; fill:#ed99bd" d="M 21.6 208L 22.4 208.8L 21.6 208z"/>
<path style="stroke:none; fill:#e674a0" d="M 63.2 208L 63.2 211.2L 64 211.2C 63.8607 209.852 63.7464 209.205 63.2 208z"/>
<path style="stroke:none; fill:#ed99bd" d="M 276 208L 276.8 208.8L 276 208z"/>
<path style="stroke:none; fill:#f7d9e1" d="M 96 208.8L 96 212.8L 96.8 212.8C 96.7296 211.229 96.6232 210.215 96 208.8z"/>
<path style="stroke:none; fill:#f0b5ce" d="M 164 208.8L 164.8 209.6L 164 208.8z"/>
<path style="stroke:none; fill:#ed99bd" d="M 22.4 209.6L 23.2 210.4L 22.4 209.6z"/>
<path style="stroke:none; fill:#e981ac" d="M 129.866 210.134C 129.822 210.178 129.778 211.022 130.134 210.666C 130.178 210.622 130.222 209.778 129.866 210.134z"/>
<path style="stroke:none; fill:#e674a0" d="M 164 209.6L 164.8 210.4L 164 209.6z"/>
<path style="stroke:none; fill:#ed99bd" d="M 275.2 209.6L 276 210.4L 275.2 209.6z"/>
<path style="stroke:none; fill:#ecaac4" d="M 23.2 211.2L 24 212L 23.2 211.2M 63.2 211.2L 63.2 214.4L 64 214.4C 63.8607 213.052 63.7464 212.405 63.2 211.2z"/>
<path style="stroke:none; fill:#f4c1d3" d="M 163.2 211.2L 164 212L 163.2 211.2z"/>
<path style="stroke:none; fill:#ecaac4" d="M 274.4 211.2L 275.2 212L 274.4 211.2z"/>
<path style="stroke:none; fill:#e981ac" d="M 163.2 212L 164 212.8L 163.2 212z"/>
<path style="stroke:none; fill:#f0b5ce" d="M 24 212.8L 24.8 213.6L 24 212.8z"/>
<path style="stroke:none; fill:#ecaac4" d="M 96 212.8L 96 217.6L 96.8 217.6C 96.7624 215.798 96.6992 214.442 96 212.8z"/>
<path style="stroke:none; fill:#e2629a" d="M 130.666 213.334C 130.622 213.378 130.578 214.222 130.934 213.866C 130.978 213.822 131.022 212.978 130.666 213.334z"/>
<path style="stroke:none; fill:#e674a0" d="M 200.8 212.8L 200.8 217.6L 201.6 217.6C 201.562 215.798 201.499 214.442 200.8 212.8M 236 212.8L 236 216L 236.8 216C 236.661 214.652 236.546 214.005 236 212.8z"/>
<path style="stroke:none; fill:#f0b5ce" d="M 273.6 212.8L 274.4 213.6L 273.6 212.8z"/>
<path style="stroke:none; fill:#f7d9e1" d="M 63.2 214.4L 63.2 217.6L 64 217.6C 63.8607 216.252 63.7464 215.605 63.2 214.4z"/>
<path style="stroke:none; fill:#eb8fb6" d="M 162.4 214.4L 163.2 215.2L 162.4 214.4z"/>
<path style="stroke:none; fill:#e7699f" d="M 25.6 215.2L 26.4 216L 25.6 215.2z"/>
<path style="stroke:none; fill:#eb8fb6" d="M 131.466 215.734C 131.422 215.778 131.378 216.622 131.734 216.266C 131.778 216.222 131.822 215.378 131.466 215.734z"/>
<path style="stroke:none; fill:#e7699f" d="M 272 215.2L 272.8 216L 272 215.2z"/>
<path style="stroke:none; fill:#ecaac4" d="M 236 216L 236 220L 236.8 220C 236.73 218.429 236.623 217.415 236 216z"/>
<path style="stroke:none; fill:#eb8fb6" d="M 26.4 216.8L 27.2 217.6L 26.4 216.8z"/>
<path style="stroke:none; fill:#eb9fba" d="M 161.6 216.8L 162.4 217.6L 161.6 216.8z"/>
<path style="stroke:none; fill:#eb8fb6" d="M 271.2 216.8L 272 217.6L 271.2 216.8z"/>
<path style="stroke:none; fill:#e674a0" d="M 96 217.6L 96 221.6L 96.8 221.6C 96.7296 220.029 96.6232 219.015 96 217.6z"/>
<path style="stroke:none; fill:#f0b5ce" d="M 27.2 218.4L 28 219.2L 27.2 218.4M 132 218.4L 132.8 219.2L 132 218.4M 270.4 218.4L 271.2 219.2L 270.4 218.4z"/>
<path style="stroke:none; fill:#e7699f" d="M 28 219.2L 28.8 220L 28 219.2z"/>
<path style="stroke:none; fill:#e674a0" d="M 132 219.2L 132.8 220L 132 219.2z"/>
<path style="stroke:none; fill:#f0b5ce" d="M 160.8 219.2L 161.6 220L 160.8 219.2z"/>
<path style="stroke:none; fill:#e7699f" d="M 269.6 219.2L 270.4 220L 269.6 219.2z"/>
<path style="stroke:none; fill:#e674a0" d="M 62.4 220L 62.4 223.2L 63.2 223.2C 63.0607 221.852 62.9464 221.205 62.4 220z"/>
<path style="stroke:none; fill:#f7d9e1" d="M 236 220L 236 223.2L 236.8 223.2C 236.661 221.852 236.546 221.205 236 220z"/>
<path style="stroke:none; fill:#ecaac4" d="M 28.8 220.8L 29.6 221.6L 28.8 220.8M 268.8 220.8L 269.6 221.6L 268.8 220.8z"/>
<path style="stroke:none; fill:#ed99bd" d="M 30.4 223.2L 31.2 224L 30.4 223.2M 267.2 223.2L 268 224L 267.2 223.2M 32 225.6L 32.8 226.4L 32 225.6M 265.6 225.6L 266.4 226.4L 265.6 225.6z"/>
<path style="stroke:none; fill:#f0b5ce" d="M 33.6 228L 34.4 228.8L 33.6 228M 264 228L 264.8 228.8L 264 228z"/>
<path style="stroke:none; fill:#e981ac" d="M 34.4 228.8L 35.2 229.6L 34.4 228.8M 263.2 228.8L 264 229.6L 263.2 228.8z"/>
<path style="stroke:none; fill:#f0b5ce" d="M 36 231.2L 36.8 232L 36 231.2M 261.6 231.2L 262.4 232L 261.6 231.2z"/>
<path style="stroke:none; fill:#e981ac" d="M 36.8 232L 37.6 232.8L 36.8 232M 260.8 232L 261.6 232.8L 260.8 232z"/>
<path style="stroke:none; fill:#ecaac4" d="M 39.2 235.2L 40 236L 39.2 235.2M 258.4 235.2L 259.2 236L 258.4 235.2z"/>
<path style="stroke:none; fill:#eb8fb6" d="M 40 236L 40.8 236.8L 40 236M 257.6 236L 258.4 236.8L 257.6 236z"/>
<path style="stroke:none; fill:#e7699f" d="M 40.8 236.8L 41.6 237.6L 40.8 236.8M 256.8 236.8L 257.6 237.6L 256.8 236.8z"/>
<path style="stroke:none; fill:#f4c1d3" d="M 44 240.8L 44.8 241.6L 44 240.8M 253.6 240.8L 254.4 241.6L 253.6 240.8z"/>
<path style="stroke:none; fill:#f0b5ce" d="M 44.8 241.6L 45.6 242.4L 44.8 241.6M 252.8 241.6L 253.6 242.4L 252.8 241.6z"/>
<path style="stroke:none; fill:#ecaac4" d="M 45.6 242.4L 46.4 243.2L 45.6 242.4M 252 242.4L 252.8 243.2L 252 242.4z"/>
<path style="stroke:none; fill:#ed99bd" d="M 46.4 243.2L 47.2 244L 46.4 243.2M 251.2 243.2L 252 244L 251.2 243.2M 47.2 244L 48 244.8L 47.2 244M 250.4 244L 251.2 244.8L 250.4 244z"/>
<path style="stroke:none; fill:#eb8fb6" d="M 48 244.8L 48.8 245.6L 48 244.8M 249.6 244.8L 250.4 245.6L 249.6 244.8M 48.8 245.6L 49.6 246.4L 48.8 245.6M 248.8 245.6L 249.6 246.4L 248.8 245.6z"/>
<path style="stroke:none; fill:#ed99bd" d="M 49.6 246.4L 50.4 247.2L 49.6 246.4M 248 246.4L 248.8 247.2L 248 246.4M 50.4 247.2L 51.2 248L 50.4 247.2M 247.2 247.2L 248 248L 247.2 247.2z"/>
<path style="stroke:none; fill:#ecaac4" d="M 51.2 248L 52 248.8L 51.2 248M 246.4 248L 247.2 248.8L 246.4 248z"/>
<path style="stroke:none; fill:#f0b5ce" d="M 52 248.8L 52.8 249.6L 52 248.8M 245.6 248.8L 246.4 249.6L 245.6 248.8z"/>
<path style="stroke:none; fill:#f4c1d3" d="M 52.8 249.6L 53.6 250.4L 52.8 249.6M 244.8 249.6L 245.6 250.4L 244.8 249.6z"/>
<path style="stroke:none; fill:#e7699f" d="M 56.8 252.8L 57.6 253.6L 56.8 252.8M 240.8 252.8L 241.6 253.6L 240.8 252.8z"/>
<path style="stroke:none; fill:#eb8fb6" d="M 57.6 253.6L 58.4 254.4L 57.6 253.6M 240 253.6L 240.8 254.4L 240 253.6z"/>
<path style="stroke:none; fill:#ecaac4" d="M 58.4 254.4L 59.2 255.2L 58.4 254.4M 239.2 254.4L 240 255.2L 239.2 254.4z"/>
<path style="stroke:none; fill:#e981ac" d="M 61.6 256.8L 62.4 257.6L 61.6 256.8M 236 256.8L 236.8 257.6L 236 256.8z"/>
<path style="stroke:none; fill:#f0b5ce" d="M 62.4 257.6L 63.2 258.4L 62.4 257.6M 235.2 257.6L 236 258.4L 235.2 257.6z"/>
<path style="stroke:none; fill:#e981ac" d="M 64.8 259.2L 65.6 260L 64.8 259.2M 232.8 259.2L 233.6 260L 232.8 259.2z"/>
<path style="stroke:none; fill:#f4c1d3" d="M 65.6 260L 66.4 260.8L 65.6 260M 232 260L 232.8 260.8L 232 260z"/>
<path style="stroke:none; fill:#eb9fba" d="M 68 261.6L 68.8 262.4L 68 261.6M 229.6 261.6L 230.4 262.4L 229.6 261.6z"/>
<path style="stroke:none; fill:#eb8fb6" d="M 70.4 263.2L 71.2 264L 70.4 263.2M 227.2 263.2L 228 264L 227.2 263.2z"/>
<path style="stroke:none; fill:#eb9fba" d="M 72.8 264.8L 73.6 265.6L 72.8 264.8z"/>
<path style="stroke:none; fill:#ed99bd" d="M 224.8 264.8L 225.6 265.6L 224.8 264.8z"/>
<path style="stroke:none; fill:#e7699f" d="M 74.4 265.6L 75.2 266.4L 74.4 265.6M 223.2 265.6L 224 266.4L 223.2 265.6z"/>
<path style="stroke:none; fill:#f0b5ce" d="M 75.2 266.4L 76 267.2L 75.2 266.4M 222.4 266.4L 223.2 267.2L 222.4 266.4z"/>
<path style="stroke:none; fill:#eb8fb6" d="M 76.8 267.2L 77.6 268L 76.8 267.2M 220.8 267.2L 221.6 268L 220.8 267.2z"/>
<path style="stroke:none; fill:#e7699f" d="M 78.4 268L 79.2 268.8L 78.4 268M 219.2 268L 220 268.8L 219.2 268z"/>
<path style="stroke:none; fill:#f0b5ce" d="M 80.8 269.6L 81.6 270.4L 80.8 269.6M 216.8 269.6L 217.6 270.4L 216.8 269.6z"/>
<path style="stroke:none; fill:#eb9fba" d="M 82.4 270.4L 83.2 271.2L 82.4 270.4M 215.2 270.4L 216 271.2L 215.2 270.4z"/>
<path style="stroke:none; fill:#ed99bd" d="M 84 271.2L 84.8 272L 84 271.2M 213.6 271.2L 214.4 272L 213.6 271.2M 85.6 272L 86.4 272.8L 85.6 272M 212 272L 212.8 272.8L 212 272M 87.2 272.8L 88 273.6L 87.2 272.8M 210.4 272.8L 211.2 273.6L 210.4 272.8z"/>
<path style="stroke:none; fill:#ecaac4" d="M 88.8 273.6L 89.6 274.4L 88.8 273.6M 208.8 273.6L 209.6 274.4L 208.8 273.6z"/>
<path style="stroke:none; fill:#f0b5ce" d="M 90.4 274.4L 91.2 275.2L 90.4 274.4M 207.2 274.4L 208 275.2L 207.2 274.4z"/>
<path style="stroke:none; fill:#e674a0" d="M 92.8 275.2L 93.6 276L 92.8 275.2M 204.8 275.2L 205.6 276L 204.8 275.2z"/>
<path style="stroke:none; fill:#eb8fb6" d="M 94.4 276L 95.2 276.8L 94.4 276z"/>
<path style="stroke:none; fill:#ed99bd" d="M 203.2 276L 204 276.8L 203.2 276z"/>
<path style="stroke:none; fill:#f4c1d3" d="M 96 276.8L 96.8 277.6L 96 276.8z"/>
<path style="stroke:none; fill:#e674a0" d="M 200.8 276.8L 201.6 277.6L 200.8 276.8z"/>
<path style="stroke:none; fill:#ed99bd" d="M 98.4 277.6L 99.2 278.4L 98.4 277.6z"/>
<path style="stroke:none; fill:#eb9fba" d="M 199.2 277.6L 200 278.4L 199.2 277.6z"/>
<path style="stroke:none; fill:#e981ac" d="M 100.8 278.4L 101.6 279.2L 100.8 278.4M 196.8 278.4L 197.6 279.2L 196.8 278.4z"/>
<path style="stroke:none; fill:#f4c1d3" d="M 102.4 279.2L 103.2 280L 102.4 279.2z"/>
<path style="stroke:none; fill:#e674a0" d="M 103.2 279.2L 104 280L 103.2 279.2M 194.4 279.2L 195.2 280L 194.4 279.2z"/>
<path style="stroke:none; fill:#f4c1d3" d="M 104.8 280L 105.6 280.8L 104.8 280z"/>
<path style="stroke:none; fill:#e674a0" d="M 105.6 280L 106.4 280.8L 105.6 280M 192 280L 192.8 280.8L 192 280z"/>
<path style="stroke:none; fill:#eb8fb6" d="M 108 280.8L 108.8 281.6L 108 280.8M 189.6 280.8L 190.4 281.6L 189.6 280.8z"/>
<path style="stroke:none; fill:#e7699f" d="M 110.934 281.866C 110.578 282.222 111.422 282.178 111.466 282.134C 111.822 281.778 110.978 281.822 110.934 281.866z"/>
<path style="stroke:none; fill:#eb9fba" d="M 186.934 281.866C 186.578 282.222 187.422 282.178 187.466 282.134C 187.822 281.778 186.978 281.822 186.934 281.866z"/>
<path style="stroke:none; fill:#e2629a" d="M 114.134 282.666C 113.778 283.022 114.622 282.978 114.666 282.934C 115.022 282.578 114.178 282.622 114.134 282.666z"/>
<path style="stroke:none; fill:#eb8fb6" d="M 183.734 282.666C 183.378 283.022 184.222 282.978 184.266 282.934C 184.622 282.578 183.778 282.622 183.734 282.666z"/>
<path style="stroke:none; fill:#e7699f" d="M 117.334 283.466C 116.978 283.822 117.822 283.778 117.866 283.734C 118.222 283.378 117.378 283.422 117.334 283.466z"/>
<path style="stroke:none; fill:#ed99bd" d="M 180.534 283.466C 180.178 283.822 181.022 283.778 181.066 283.734C 181.422 283.378 180.578 283.422 180.534 283.466z"/>
<path style="stroke:none; fill:#eb8fb6" d="M 120.534 284.266C 120.178 284.622 121.022 284.578 121.066 284.534C 121.422 284.178 120.578 284.222 120.534 284.266M 176 284L 176 284.8L 178.4 284.8C 177.402 284.252 177.162 284.201 176 284z"/>
<path style="stroke:none; fill:#ecaac4" d="M 124 284.8L 124 285.6L 126.4 285.6C 125.402 285.052 125.162 285.001 124 284.8z"/>
<path style="stroke:none; fill:#e674a0" d="M 171.2 284.8L 171.2 285.6L 173.6 285.6C 172.602 285.052 172.362 285.001 171.2 284.8z"/>
<path style="stroke:none; fill:#ecaac4" d="M 129.334 285.866C 128.978 286.222 129.822 286.178 129.866 286.134C 130.222 285.778 129.378 285.822 129.334 285.866z"/>
<path style="stroke:none; fill:#e674a0" d="M 130.934 285.866C 130.578 286.222 131.422 286.178 131.466 286.134C 131.822 285.778 130.978 285.822 130.934 285.866z"/>
<path style="stroke:none; fill:#e15794" d="M 165.334 285.866C 164.978 286.222 165.822 286.178 165.866 286.134C 166.222 285.778 165.378 285.822 165.334 285.866z"/>
<path style="stroke:none; fill:#eb8fb6" d="M 166.934 285.866C 166.578 286.222 167.422 286.178 167.466 286.134C 167.822 285.778 166.978 285.822 166.934 285.866z"/>
<path style="stroke:none; fill:#f6ccdd" d="M 168.534 285.866C 168.178 286.222 169.022 286.178 169.066 286.134C 169.422 285.778 168.578 285.822 168.534 285.866z"/>
<path style="stroke:none; fill:#f7d9e1" d="M 134.934 286.666C 134.578 287.022 135.422 286.978 135.466 286.934C 135.822 286.578 134.978 286.622 134.934 286.666z"/>
<path style="stroke:none; fill:#f0b5ce" d="M 136.534 286.666C 136.178 287.022 137.022 286.978 137.066 286.934C 137.422 286.578 136.578 286.622 136.534 286.666z"/>
<path style="stroke:none; fill:#e674a0" d="M 137.6 286.4L 137.6 287.2L 141.6 287.2C 140.185 286.577 139.171 286.47 137.6 286.4z"/>
<path style="stroke:none; fill:#df4185" d="M 141.6 286.4L 141.6 287.2L 147.2 287.2C 145.334 286.412 143.634 286.415 141.6 286.4z"/>
<path style="stroke:none; fill:#e15794" d="M 153.6 286.4L 153.6 287.2L 159.2 287.2C 157.334 286.412 155.634 286.415 153.6 286.4z"/>
<path style="stroke:none; fill:#eb9fba" d="M 159.2 286.4L 159.2 287.2L 161.6 287.2C 160.602 286.652 160.362 286.601 159.2 286.4z"/>
<path style="stroke:none; fill:#f7d9e1" d="M 161.6 286.4L 161.6 287.2L 164 287.2C 163.002 286.652 162.762 286.601 161.6 286.4z"/>
</g>
</svg>